<svg width="1728" height="209" viewBox="0 0 1728 209" fill="none" xmlns="http://www.w3.org/2000/svg">
<path fill-rule="evenodd" clip-rule="evenodd" d="M0 192.338L72 190.163C144 187.988 288 183.639 432 190.163C576 196.687 720 214.085 864 207.561C1008 201.037 1152 170.591 1296 161.892C1440 153.193 1584 166.241 1656 172.765L1728 179.29V101H1656C1584 101 1440 101 1296 101C1152 101 1008 101 864 101C720 101 576 101 432 101C288 101 144 101 72 101H0V192.338Z" fill="#780404"/>
<path fill-rule="evenodd" clip-rule="evenodd" d="M1728 16.6622L1656 18.8369C1584 21.0116 1440 25.361 1296 18.8369C1152 12.3127 1008 -5.08493 864 1.43918C720 7.96329 576 38.4092 432 47.108C288 55.8069 144 42.7586 72 36.2345L6.84429e-06 29.7103L0 108L72 108C144 108 288 108 432 108C576 108 720 108 864 108C1008 108 1152 108 1296 108C1440 108 1584 108 1656 108L1728 108L1728 16.6622Z" fill="#780404"/>
</svg>
